{"title":"Team Hurjat Mopoilija Movie","uid":5269902,"size":480271734,"categoryP":"video","categoryS":"movie_clips","magnet":"?xt=urn:btih:29fb3977b2392d7d683b73b2ec9c1f5270949658&amp;dn=Team+Hurjat+Mopoilija+Movie&amp;tr=udp%3A%2F%2Ftracker.openbittorrent.com%3A80&amp;tr=udp%3A%2F%2Fopen.demonii.com%3A1337&amp;tr=udp%3A%2F%2Ftracker.coppersurfer.tk%3A6969&amp;tr=udp%3A%2F%2Fexodus.desync.com%3A6969","seeders":0,"leechers":1,"uploader":"teamhurjatmopoilija","files":1,"time":1263016109,"description":" &lt;a href=&quot;http://www.hurjatmopoilija.com/&quot; rel=&quot;nofollow&quot; target=&quot;_NEW&quot;&gt;http://www.hurjatmopoilija.com/&lt;/a&gt;\nVisit there or be persereikÃƒÂ¤... or perÃƒÂ¤kÃƒÂ¤rry!\n\n\nGeneral\nComplete name                    : /media/truecrypt2/torrent_imut/Team Hurjat Mopoilija - PerÃƒÂ¤kÃƒÂ¤rryjÃƒÂ¤ ja PersereikiÃƒÂ¤ vol. #1/hurjat.avi\nFormat                           : AVI\nFormat/Info                      : Audio Video Interleave\nFile size                        : 458 MiB\nDuration                         : 29mn 5s\nOverall bit rate                 : 2 202 Kbps\n\nVideo\nID                               : 0\nFormat                           : MPEG-4 Visual\nFormat settings, BVOP            : Yes\nFormat settings, QPel            : No\nFormat settings, GMC             : No warppoints\nFormat settings, Matrix          : Default (H.263)\nCodec ID                         : DX50\nCodec ID/Hint                    : DivX 5\nDuration                         : 29mn 5s\nBit rate                         : 1 996 Kbps\nWidth                            : 640 pixels\nHeight                           : 480 pixels\nDisplay aspect ratio             : 4:3\nFrame rate                       : 30.000 fps\nResolution                       : 8 bits\nColorimetry                      : 4:2:0\nScan type                        : Progressive\nBits/(Pixel*Frame)               : 0.217\nStream size                      : 415 MiB (91%)\nWriting library                  : DivX 6.8.5 (UTC 2009-08-20)\n\nAudio\nID                               : 1\nFormat                           : MPEG Audio\nFormat version                   : Version 1\nFormat profile                   : Layer 3\nCodec ID                         : 55\nCodec ID/Hint                    : MP3\nDuration                         : 29mn 5s\nBit rate mode                    : Constant\nBit rate                         : 192 Kbps\nChannel(s)                       : 2 channels\nSampling rate                    : 44.1 KHz\nStream size                      : 39.9 MiB (9%)\nAlignment                        : Split accross interleaves\nInterleave, duration             : 26 ms (0.78 video frame)\n\n","torrent":{"xt":"urn:btih:29fb3977b2392d7d683b73b2ec9c1f5270949658","amp;dn":"Team+Hurjat+Mopoilija+Movie","amp;tr":["udp%3A%2F%2Ftracker.openbittorrent.com%3A80","udp%3A%2F%2Fopen.demonii.com%3A1337","udp%3A%2F%2Ftracker.coppersurfer.tk%3A6969","udp%3A%2F%2Fexodus.desync.com%3A6969"],"infoHash":"29fb3977b2392d7d683b73b2ec9c1f5270949658","infoHashBuffer":{"type":"Buffer","data":[41,251,57,119,178,57,45,125,104,59,115,178,236,156,31,82,112,148,150,88]},"announce":[],"urlList":[]}}